#!OML:ASF X:\für Bonn\!DataBase\2005_08_11_Bastian_Final\c3d\Bastian.ASF
:FULLY-SPECIFIED
:DEGREES
93
root 0.792193 9.21241 0.632587 167.135 -3.3427 -176.346
lowerback 39.7144 1.58321 0.090629
upperback 7.38042 -0.732862 0.863343
thorax -11.0637 -1.53099 1.42747
lowerneck -11.4513 -5.37611 -4.96076
upperneck -10.9591 -7.65324 11.2862
head -0.88709 -4.40273 4.38217
rclavicle 1.98785e-015 2.18663e-014
rhumerus 69.969 -4.14379 26.6915
rradius 44.1023
rwrist -80.2754
rhand -50.72 -8.46159
rfingers 7.12502
rthumb -23.28 -37.0742
lclavicle 1.98785e-015 2.18663e-014
lhumerus 64.4557 -8.53503 -30.0208
lradius 34.7039
lwrist 33.2212
lhand -49.3724 24.092
lfingers 7.12502
lthumb -21.9866 52.8624
rfemur -57.7424 -17.2689 24.8326
rtibia 139.159
rfoot -39.3534 -10.7347
rtoes -19.2757
lfemur -61.2451 21.9797 -11.699
ltibia 139.905
lfoot -41.4408 -6.28767
ltoes -31.6621
94
root 0.79423 9.4877 0.652058 167.381 -3.38724 -176.223
lowerback 39.5094 1.49368 0.166026
upperback 7.30333 -0.763451 0.882095
thorax -11.0822 -1.52654 1.41683
lowerneck -11.2901 -5.35312 -4.99612
upperneck -10.9119 -7.60514 11.3894
head -0.896134 -4.37428 4.43259
rclavicle -2.78299e-015 -1.07344e-014
rhumerus 70.1753 -3.95472 26.8825
rradius 44.0007
rwrist -80.042
rhand -50.6727 -8.2444
rfingers 7.12502
rthumb -23.2346 -36.8627
lclavicle -2.78299e-015 -1.07344e-014
lhumerus 64.8581 -8.65837 -30.0827
lradius 34.4657
lwrist 32.9735
lhand -49.0155 23.557
lfingers 7.12502
lthumb -21.6439 52.3672
rfemur -57.0884 -15.5278 25.2569
rtibia 136.903
rfoot -38.1124 -10.9655
rtoes -19.3964
lfemur -60.4733 19.6624 -11.9866
ltibia 137.634
lfoot -40.2327 -5.62577
ltoes -31.8851
95
root 0.795084 9.75951 0.668597 167.612 -3.42927 -176.101
lowerback 39.2771 1.39715 0.237081
upperback 7.22445 -0.801724 0.909574
thorax -11.0929 -1.52476 1.42038
lowerneck -11.1158 -5.31314 -5.066
upperneck -10.8643 -7.53007 11.5028
head -0.908017 -4.3312 4.49545
rclavicle -6.16232e-015 3.18055e-015
rhumerus 70.4535 -3.77999 27.1241
rradius 43.8801
rwrist -79.9837
rhand -50.6616 -8.00424
rfingers 7.12502
rthumb -23.2239 -36.6239
lclavicle -6.16232e-015 3.18055e-015
lhumerus 65.2703 -8.80859 -30.2868
lradius 34.2297
lwrist 32.7403
lhand -48.6043 23.1394
lfingers 7.12502
lthumb -21.249 51.9946
rfemur -56.3546 -14.1508 25.6056
rtibia 134.637
rfoot -36.9863 -11.0764
rtoes -19.1556
lfemur -59.6614 17.7075 -12.1879
ltibia 135.369
lfoot -39.0923 -5.05223
ltoes -31.9744
96
root 0.795916 10.0272 0.6817 167.825 -3.47818 -175.998
lowerback 38.9996 1.31686 0.297963
upperback 7.1683 -0.827703 0.937677
thorax -11.062 -1.51903 1.42323
lowerneck -10.9506 -5.26104 -5.12948
upperneck -10.8611 -7.4433 11.6126
head -0.93501 -4.28613 4.55776
rclavicle 4.17448e-015 -4.77083e-015
rhumerus 70.7279 -3.62007 27.3156
rradius 43.7128
rwrist -79.931
rhand -50.6051 -7.81431
rfingers 7.12502
rthumb -23.1698 -36.4408
lclavicle 4.17448e-015 -4.77083e-015
lhumerus 65.7006 -8.92637 -30.5675
lradius 33.9772
lwrist 32.3615
lhand -48.1041 22.9472
lfingers 7.12502
lthumb -20.7684 51.8558
rfemur -55.5517 -13.0571 25.8825
rtibia 132.365
rfoot -35.9657 -11.1934
rtoes -18.7716
lfemur -58.7751 16.0412 -12.3616
ltibia 133.094
lfoot -38.0672 -4.50668
ltoes -32.1098
97
root 0.796486 10.3084 0.691212 167.997 -3.52181 -175.893
lowerback 38.7746 1.24056 0.363415
upperback 7.10158 -0.850975 0.951598
thorax -11.0605 -1.51275 1.40858
lowerneck -10.8219 -5.20544 -5.13314
upperneck -10.7997 -7.35735 11.7062
head -0.939432 -4.23954 4.59936
rclavicle 1.74931e-014 2.06736e-014
rhumerus 71.0429 -3.42735 27.4634
rradius 43.4628
rwrist -79.7574
rhand -50.4989 -7.82459
rfingers 7.12502
rthumb -23.0679 -36.4639
lclavicle 1.74931e-014 2.06736e-014
lhumerus 66.1717 -9.04238 -30.945
lradius 33.6999
lwrist 31.8607
lhand -47.5564 22.8604
lfingers 7.12502
lthumb -20.2421 51.8256
rfemur -54.5238 -12.105 26.0962
rtibia 129.961
rfoot -35.0518 -11.2185
rtoes -18.1892
lfemur -57.6399 14.5307 -12.4754
ltibia 130.693
lfoot -37.2053 -3.97619
ltoes -32.2249
98
root 0.797056 10.5958 0.697476 168.177 -3.5598 -175.791
lowerback 38.4628 1.1664 0.40838
upperback 7.05647 -0.878752 0.979995
thorax -11.0039 -1.50855 1.41964
lowerneck -10.7379 -5.14753 -5.11653
upperneck -10.7194 -7.27228 11.723
head -0.934196 -4.19128 4.60689
rclavicle -1.0138e-014 -1.59028e-014
rhumerus 71.2927 -3.287 27.9548
rradius 43.3307
rwrist -79.8881
rhand -50.4919 -7.89621
rfingers 7.12502
rthumb -23.0611 -36.5363
lclavicle -1.0138e-014 -1.59028e-014
lhumerus 66.6051 -9.16632 -31.4528
lradius 33.4225
lwrist 31.3223
lhand -47.0213 22.95
lfingers 7.12502
lthumb -19.7278 51.969
rfemur -53.4149 -11.3073 26.2954
rtibia 127.477
rfoot -34.1774 -11.3067
rtoes -17.6783
lfemur -56.4069 13.1856 -12.5591
ltibia 128.203
lfoot -36.4369 -3.50409
ltoes -32.2806
99
root 0.796743 10.8851 0.700525 168.346 -3.61988 -175.681
lowerback 38.1065 1.07467 0.475821
upperback 7.02024 -0.920084 1.00463
thorax -10.9204 -1.51081 1.419
lowerneck -10.82 -5.09444 -5.00689
upperneck -10.5309 -7.20676 11.6254
head -0.871254 -4.14663 4.54456
rclavicle -7.95139e-016 -7.95139e-016
rhumerus 71.4278 -3.17152 28.9674
rradius 43.3899
rwrist -80.3584
rhand -50.5713 -8.14972
rfingers 7.12502
rthumb -23.1373 -36.7803
lclavicle -7.95139e-016 -7.95139e-016
lhumerus 67.0376 -9.29626 -31.9531
lradius 33.1127
lwrist 30.7052
lhand -46.5377 23.0121
lfingers 7.12502
lthumb -19.2628 52.078
rfemur -52.2154 -10.661 26.4748
rtibia 124.918
rfoot -33.3532 -11.4153
rtoes -17.0728
lfemur -55.0781 11.9664 -12.5981
ltibia 125.627
lfoot -35.7708 -3.13229
ltoes -32.0864
100
root 0.797002 11.1767 0.700983 168.525 -3.67311 -175.58
lowerback 37.6774 1.00077 0.531759
upperback 6.99432 -0.941286 1.03298
thorax -10.7988 -1.50282 1.41782
lowerneck -10.9177 -5.04662 -4.8592
upperneck -10.3523 -7.15366 11.4619
head -0.812288 -4.10879 4.4506
rclavicle -1.17283e-014 -5.56597e-015
rhumerus 71.4789 -3.05784 30.2796
rradius 43.5631
rwrist -81.0502
rhand -50.6844 -8.50525
rfingers 7.12502
rthumb -23.2459 -37.1222
lclavicle -1.17283e-014 -5.56597e-015
lhumerus 67.4967 -9.40807 -32.6162
lradius 32.8067
lwrist 30.1495
lhand -46.1182 23.1322
lfingers 7.12502
lthumb -18.8594 52.238
rfemur -50.9648 -10.1101 26.626
rtibia 122.289
rfoot -32.6207 -11.4753
rtoes -16.4118
lfemur -53.6797 10.8873 -12.6136
ltibia 122.969
lfoot -35.1716 -2.90245
ltoes -31.5923
101
root 0.796249 11.4705 0.699484 168.685 -3.72439 -175.499
lowerback 37.2238 0.927917 0.55224
upperback 6.98885 -0.980672 1.07058
thorax -10.6433 -1.50492 1.45158
lowerneck -11.1489 -4.99628 -4.67991
upperneck -10.0833 -7.10354 11.2355
head -0.704307 -4.06665 4.32128
rclavicle -1.23246e-014 1.74931e-014
rhumerus 71.6383 -2.91699 31.4867
rradius 43.6652
rwrist -81.5463
rhand -50.764 -8.93948
rfingers 7.12502
rthumb -23.3222 -37.5467
lclavicle -1.23246e-014 1.74931e-014
lhumerus 67.8562 -9.55382 -33.5678
lradius 32.6256
lwrist 29.8447
lhand -45.8581 23.3182
lfingers 7.12502
lthumb -18.6092 52.448
rfemur -49.6161 -9.6733 26.7432
rtibia 119.591
rfoot -31.907 -11.669
rtoes -16.3566
lfemur -52.1738 9.91634 -12.642
ltibia 120.21
lfoot -34.6377 -2.67342
ltoes -31.0254
